<?xml version="1.0" encoding="UTF-8"?>
<svg id="Layer_2" data-name="Layer 2" xmlns="http://www.w3.org/2000/svg" viewBox="0 0 720 720">
  <defs>
    <style>
      .cls-1 {
        fill: none;
        stroke: gray;
        stroke-miterlimit: 10;
        stroke-width: .08px;
      }

      .cls-2 {
        fill: #ff391f;
      }
    </style>
  </defs>
  <g>
    <line class="cls-1" x1="190" y1="329.95" x2="530" y2="329.95"/>
    <line class="cls-1" x1="190" y1="339.95" x2="530" y2="339.95"/>
    <line class="cls-1" x1="190" y1="349.95" x2="530" y2="349.95"/>
    <line class="cls-1" x1="190" y1="359.95" x2="530" y2="359.95"/>
    <line class="cls-1" x1="190" y1="369.95" x2="530" y2="369.95"/>
    <line class="cls-1" x1="190" y1="379.95" x2="530" y2="379.95"/>
    <line class="cls-1" x1="190" y1="389.95" x2="530" y2="389.95"/>
    <line class="cls-1" x1="190" y1="399.95" x2="530" y2="399.95"/>
    <line class="cls-1" x1="520" y1="409.89" x2="520" y2="319.95"/>
    <line class="cls-1" x1="510" y1="409.89" x2="510" y2="319.95"/>
    <line class="cls-1" x1="500" y1="409.89" x2="500" y2="319.95"/>
    <line class="cls-1" x1="490" y1="409.89" x2="490" y2="319.95"/>
    <line class="cls-1" x1="480" y1="409.89" x2="480" y2="319.95"/>
    <line class="cls-1" x1="470" y1="409.89" x2="470" y2="319.95"/>
    <line class="cls-1" x1="460" y1="409.89" x2="460" y2="319.95"/>
    <line class="cls-1" x1="450" y1="409.89" x2="450" y2="319.95"/>
    <line class="cls-1" x1="440" y1="409.89" x2="440" y2="319.95"/>
    <line class="cls-1" x1="430" y1="409.89" x2="430" y2="319.95"/>
    <line class="cls-1" x1="420" y1="409.89" x2="420" y2="319.95"/>
    <line class="cls-1" x1="410" y1="409.89" x2="410" y2="319.95"/>
    <line class="cls-1" x1="400" y1="409.89" x2="400" y2="319.95"/>
    <line class="cls-1" x1="390" y1="409.89" x2="390" y2="319.95"/>
    <line class="cls-1" x1="380" y1="409.89" x2="380" y2="319.95"/>
    <line class="cls-1" x1="370" y1="409.89" x2="370" y2="319.95"/>
    <line class="cls-1" x1="360" y1="409.89" x2="360" y2="319.95"/>
    <line class="cls-1" x1="350" y1="409.89" x2="350" y2="319.95"/>
    <line class="cls-1" x1="340" y1="409.89" x2="340" y2="319.95"/>
    <line class="cls-1" x1="330" y1="409.89" x2="330" y2="319.95"/>
    <line class="cls-1" x1="320" y1="409.89" x2="320" y2="319.95"/>
    <line class="cls-1" x1="310" y1="409.89" x2="310" y2="319.95"/>
    <line class="cls-1" x1="300" y1="409.89" x2="300" y2="319.95"/>
    <line class="cls-1" x1="290" y1="409.89" x2="290" y2="319.95"/>
    <line class="cls-1" x1="280" y1="409.89" x2="280" y2="319.95"/>
    <line class="cls-1" x1="270" y1="409.89" x2="270" y2="319.95"/>
    <line class="cls-1" x1="260" y1="409.89" x2="260" y2="319.95"/>
    <line class="cls-1" x1="250" y1="409.89" x2="250" y2="319.95"/>
    <line class="cls-1" x1="240" y1="409.89" x2="240" y2="319.95"/>
    <line class="cls-1" x1="230" y1="409.89" x2="230" y2="319.95"/>
    <line class="cls-1" x1="220" y1="409.89" x2="220" y2="319.95"/>
    <line class="cls-1" x1="210" y1="409.89" x2="210" y2="319.95"/>
    <line class="cls-1" x1="200" y1="409.89" x2="200" y2="319.95"/>
  </g>
  <g>
    <rect x="321.5" y="361.45" width="7" height="7" rx="3.5" ry="3.5"/>
    <rect x="202.5" y="352.45" width="5" height="5" rx="2.5" ry="2.5"/>
    <path d="m204.61,352.48c4.08-.65,7.28-3.84,7.92-7.92l2.86,2.86c-4.08.65-7.28,3.84-7.92,7.92l-2.86-2.86Z"/>
    <path d="m245.39,352.48c-4.08-.65-7.28-3.84-7.92-7.92l-2.86,2.86c4.08.65,7.28,3.84,7.92,7.92l2.86-2.86Z"/>
    <rect x="212.5" y="342.45" width="5" height="5" rx="2.5" ry="2.5"/>
    <rect x="222.5" y="342.45" width="5" height="5" rx="2.5" ry="2.5"/>
    <path d="m226.77,343.18c1.79,1.79,4.68,1.79,6.46,0v3.54c-1.79-1.79-4.68-1.79-6.46,0v-3.54Z"/>
    <path d="m226.77,373.18c1.79,1.79,4.68,1.79,6.46,0v3.54c-1.79-1.79-4.68-1.79-6.46,0v-3.54Z"/>
    <path d="m226.77,393.18c1.79,1.79,4.68,1.79,6.46,0v3.54c-1.79-1.79-4.68-1.79-6.46,0v-3.54Z"/>
    <path d="m216.77,393.18c1.79,1.79,4.68,1.79,6.46,0v3.54c-1.79-1.79-4.68-1.79-6.46,0v-3.54Z"/>
    <path d="m216.77,373.18c1.79,1.79,4.68,1.79,6.46,0v3.54c-1.79-1.79-4.68-1.79-6.46,0v-3.54Z"/>
    <path d="m216.77,343.18c1.79,1.79,4.68,1.79,6.46,0v3.54c-1.79-1.79-4.68-1.79-6.46,0v-3.54Z"/>
    <rect x="232.5" y="342.45" width="5" height="5" rx="2.5" ry="2.5"/>
    <rect x="242.5" y="352.45" width="5" height="5" rx="2.5" ry="2.5"/>
    <path d="m246.77,356.72c-1.79,1.79-1.79,4.68,0,6.46h-3.54c1.79-1.79,1.79-4.68,0-6.46h3.54Z"/>
    <rect x="242.5" y="362.45" width="5" height="5" rx="2.5" ry="2.5"/>
    <path d="m267.43,393.19c1.27,1.75,3.88,1.75,5.15,0v3.53c-1.27-1.75-3.88-1.75-5.15,0v-3.53Z"/>
    <path d="m277.43,393.19c1.27,1.75,3.88,1.75,5.15,0v3.53c-1.27-1.75-3.88-1.75-5.15,0v-3.53Z"/>
    <path d="m276.76,347.38c-1.75,1.27-1.75,3.88,0,5.15h-3.53c1.75-1.27,1.75-3.88,0-5.15h3.53Z"/>
    <path d="m276.76,387.38c-1.75,1.27-1.75,3.88,0,5.15h-3.53c1.75-1.27,1.75-3.88,0-5.15h3.53Z"/>
    <rect x="272" y="341.95" width="6" height="6" rx="3" ry="3"/>
    <rect x="272" y="331.95" width="6" height="6" rx="3" ry="3"/>
    <path d="m272.01,335.21c-.34-3.87-3.41-6.93-7.27-7.27l3.25-3.25c.34,3.87,3.41,6.93,7.27,7.27l-3.25,3.25Z"/>
    <rect x="262" y="321.95" width="6" height="6" rx="3" ry="3"/>
    <rect x="272" y="351.95" width="6" height="6" rx="3" ry="3"/>
    <path d="m276.76,367.38c-1.75,1.27-1.75,3.88,0,5.15h-3.53c1.75-1.27,1.75-3.88,0-5.15h3.53Z"/>
    <rect x="272" y="361.95" width="6" height="6" rx="3" ry="3"/>
    <rect x="272" y="371.95" width="6" height="6" rx="3" ry="3"/>
    <rect x="272" y="381.95" width="6" height="6" rx="3" ry="3"/>
    <rect x="282" y="391.95" width="6" height="6" rx="3" ry="3"/>
    <rect x="272" y="391.95" width="6" height="6" rx="3" ry="3"/>
    <rect x="262" y="391.95" width="6" height="6" rx="3" ry="3"/>
    <rect class="cls-2" x="321.5" y="341.45" width="7" height="7" rx="3.5" ry="3.5"/>
    <rect x="301.5" y="351.45" width="7" height="7" rx="3.5" ry="3.5"/>
    <path d="m308.03,353.2c.88,1.52,3.06,1.52,3.94,0v3.5c-.88-1.52-3.06-1.52-3.94,0v-3.5Z"/>
    <path d="m326.75,367.98c-1.52.88-1.52,3.06,0,3.94h-3.5c1.52-.88,1.52-3.06,0-3.94h3.5Z"/>
    <path d="m326.75,377.98c-1.52.88-1.52,3.06,0,3.94h-3.5c1.52-.88,1.52-3.06,0-3.94h3.5Z"/>
    <path d="m308.03,393.2c.88,1.52,3.06,1.52,3.94,0v3.5c-.88-1.52-3.06-1.52-3.94,0v-3.5Z"/>
    <path d="m328.03,393.2c.88,1.52,3.06,1.52,3.94,0v3.5c-.88-1.52-3.06-1.52-3.94,0v-3.5Z"/>
    <rect x="311.5" y="351.45" width="7" height="7" rx="3.5" ry="3.5"/>
    <rect x="321.5" y="371.45" width="7" height="7" rx="3.5" ry="3.5"/>
    <rect x="321.5" y="381.45" width="7" height="7" rx="3.5" ry="3.5"/>
    <path d="m326.75,387.97c-1.52.88-1.52,3.06,0,3.94h-3.5c1.52-.88,1.52-3.06,0-3.94h3.5Z"/>
    <rect x="321.5" y="391.43" width="7" height="7" rx="3.5" ry="3.5"/>
    <path d="m318.5,355.13c-.19,3.57,2.76,6.51,6.32,6.32l-3.31,3.31c.19-3.57-2.76-6.51-6.32-6.32l3.31-3.31Z"/>
    <rect x="331.5" y="391.45" width="7" height="7" rx="3.5" ry="3.5"/>
    <rect x="351" y="340.95" width="8" height="8" rx="4" ry="4"/>
    <rect x="351" y="360.95" width="8" height="8" rx="4" ry="4"/>
    <rect x="351" y="370.95" width="8" height="8" rx="4" ry="4"/>
    <rect x="361" y="350.95" width="8" height="8" rx="4" ry="4"/>
    <path d="m365.63,351c3.18.5,5.93-2.24,5.42-5.42l3.33,3.33c-3.18-.5-5.93,2.24-5.42,5.42l-3.33-3.33Z"/>
    <path d="m394.37,351c-3.18.5-5.93-2.24-5.42-5.42l-3.33,3.33c3.18-.5,5.93,2.24,5.42,5.42l3.33-3.33Z"/>
    <path d="m355.63,361c3.18.5,5.93-2.24,5.42-5.42l3.33,3.33c-3.18-.5-5.93,2.24-5.42,5.42l-3.33-3.33Z"/>
    <rect x="371" y="340.95" width="8" height="8" rx="4" ry="4"/>
    <path d="m378.63,343.26c.54,1.17,2.2,1.17,2.75,0v3.38c-.54-1.17-2.2-1.17-2.75,0v-3.38Z"/>
    <path d="m393.31,371.32c1.17-.54,1.17-2.2,0-2.75h3.38c-1.17.54-1.17,2.2,0,2.75h-3.38Z"/>
    <path d="m353.31,381.32c1.17-.54,1.17-2.2,0-2.75h3.38c-1.17.54-1.17,2.2,0,2.75h-3.38Z"/>
    <path d="m353.31,391.32c1.17-.54,1.17-2.2,0-2.75h3.38c-1.17.54-1.17,2.2,0,2.75h-3.38Z"/>
    <path d="m393.31,381.32c1.17-.54,1.17-2.2,0-2.75h3.38c-1.17.54-1.17,2.2,0,2.75h-3.38Z"/>
    <rect x="381" y="340.95" width="8" height="8" rx="4" ry="4"/>
    <rect x="391" y="350.95" width="8" height="8" rx="4" ry="4"/>
    <rect x="391" y="360.95" width="8" height="8" rx="4" ry="4"/>
    <rect x="391" y="370.95" width="8" height="8" rx="4" ry="4"/>
    <rect x="391" y="380.95" width="8" height="8" rx="4" ry="4"/>
    <rect x="391" y="390.95" width="8" height="8" rx="4" ry="4"/>
    <rect x="351" y="380.95" width="8" height="8" rx="4" ry="4"/>
    <path d="m353.31,351.32c1.17-.54,1.17-2.2,0-2.75h3.38c-1.17.54-1.17,2.2,0,2.75h-3.38Z"/>
    <rect x="351" y="350.95" width="8" height="8" rx="4" ry="4"/>
    <rect x="351" y="390.95" width="8" height="8" rx="4" ry="4"/>
    <rect x="311.5" y="391.45" width="7" height="7" rx="3.5" ry="3.5"/>
    <rect x="301.5" y="391.45" width="7" height="7" rx="3.5" ry="3.5"/>
    <rect x="242.5" y="392.45" width="5" height="5" rx="2.5" ry="2.5"/>
    <rect x="242.5" y="372.45" width="5" height="5" rx="2.5" ry="2.5"/>
    <rect x="232.5" y="372.45" width="5" height="5" rx="2.5" ry="2.5"/>
    <path d="m237.47,375.34c.65-4.08,3.84-7.28,7.92-7.92l-2.86-2.86c-.65,4.08-3.84,7.28-7.92,7.92l2.86,2.86Z"/>
    <path d="m237.47,395.34c.65-4.08,3.84-7.28,7.92-7.92l-2.86-2.86c-.65,4.08-3.84,7.28-7.92,7.92l2.86,2.86Z"/>
    <rect x="222.5" y="372.45" width="5" height="5" rx="2.5" ry="2.5"/>
    <rect x="212.5" y="372.45" width="5" height="5" rx="2.5" ry="2.5"/>
    <path d="m215.39,377.42c-4.08.65-7.28,3.84-7.92,7.92l-2.86-2.86c4.08-.65,7.28-3.84,7.92-7.92l2.86,2.86Z"/>
    <path d="m215.39,392.48c-4.08-.65-7.28-3.84-7.92-7.92l-2.86,2.86c4.08.65,7.28,3.84,7.92,7.92l2.86-2.86Z"/>
    <rect x="212.5" y="392.45" width="5" height="5" rx="2.5" ry="2.5"/>
    <rect x="222.5" y="392.45" width="5" height="5" rx="2.5" ry="2.5"/>
    <rect x="232.5" y="392.45" width="5" height="5" rx="2.5" ry="2.5"/>
    <rect x="242.5" y="382.45" width="5" height="5" rx="2.5" ry="2.5"/>
    <rect x="202.5" y="382.45" width="5" height="5" rx="2.5" ry="2.5"/>
    <rect x="450.5" y="380.45" width="9" height="9" rx="4.5" ry="4.5" transform="translate(910 769.9) rotate(-180)"/>
    <path d="m454.14,389.37c-2.8-.55-5.27,1.92-4.72,4.72l-3.56-3.56c2.8.55,5.27-1.92,4.72-4.72l3.56,3.56Z"/>
    <path d="m454.14,350.53c-2.8.55-5.27-1.92-4.72-4.72l-3.56,3.56c2.8-.55,5.27,1.92,4.72,4.72l3.56-3.56Z"/>
    <path d="m415.86,350.53c2.8.55,5.27-1.92,4.72-4.72l3.56,3.56c-2.8-.55-5.27,1.92-4.72,4.72l-3.56-3.56Z"/>
    <path d="m454.14,359.37c-2.8-.55-5.27,1.92-4.72,4.72l-3.56-3.56c2.8.55,5.27-1.92,4.72-4.72l3.56,3.56Z"/>
    <path d="m415.86,389.37c2.8-.55,5.27,1.92,4.72,4.72l3.56-3.56c-2.8.55-5.27-1.92-4.72-4.72l-3.56,3.56Z"/>
    <rect x="470" y="379.95" width="10" height="10" rx="5" ry="5" transform="translate(950 769.9) rotate(-180)"/>
    <path d="m479.83,386.24c-.63,2.35,1.52,4.51,3.88,3.88l-3.54,3.54c.63-2.35-1.52-4.51-3.88-3.88l3.54-3.54Z"/>
    <rect x="470" y="369.95" width="10" height="10" rx="5" ry="5" transform="translate(950 749.9) rotate(-180)"/>
    <rect x="470" y="359.95" width="10" height="10" rx="5" ry="5" transform="translate(950 729.9) rotate(-180)"/>
    <path d="m513.71,350.12c-2.35.63-4.51-1.52-3.88-3.88l-3.54,3.54c2.35-.63,4.51,1.52,3.88,3.88l3.54-3.54Z"/>
    <rect x="480.17" y="339.95" width="10" height="10" rx="5" ry="5" transform="translate(970.35 689.9) rotate(-180)"/>
    <path d="m483.84,349.77c-2.4-.67-4.62,1.52-4,3.93l-3.5-3.57c2.4.67,4.62-1.52,4-3.93l3.5,3.57Z"/>
    <rect x="490" y="339.95" width="10" height="10" rx="5" ry="5" transform="translate(990 689.9) rotate(-180)"/>
    <rect x="500" y="339.95" width="10" height="10" rx="5" ry="5" transform="translate(1010 689.9) rotate(180)"/>
    <rect x="510" y="349.95" width="10" height="10" rx="5" ry="5" transform="translate(1030 709.9) rotate(180)"/>
    <path d="m513.71,339.78c-2.35-.63-4.51,1.52-3.88,3.88l-3.54-3.54c2.35.63,4.51-1.52,3.88-3.88l3.54,3.54Z"/>
    <rect x="510" y="329.95" width="10" height="10" rx="5" ry="5" transform="translate(1030 669.9) rotate(-180)"/>
    <rect x="510" y="359.95" width="10" height="10" rx="5" ry="5" transform="translate(1030 729.9) rotate(180)"/>
    <rect x="510" y="369.95" width="10" height="10" rx="5" ry="5" transform="translate(1030 749.9) rotate(180)"/>
    <rect x="510" y="379.95" width="10" height="10" rx="5" ry="5" transform="translate(1030 769.9) rotate(-180)"/>
    <rect x="500" y="389.95" width="10" height="10" rx="5" ry="5" transform="translate(1010 789.9) rotate(-180)"/>
    <path d="m500.67,397.45c-.3-.52-1.04-.52-1.34,0v-5c.3.52,1.04.52,1.34,0v5Z"/>
    <path d="m500.67,347.45c-.3-.52-1.04-.52-1.34,0v-5c.3.52,1.04.52,1.34,0v5Z"/>
    <path d="m490.67,347.45c-.3-.52-1.04-.52-1.34,0v-5c.3.52,1.04.52,1.34,0v5Z"/>
    <path d="m472.5,380.62c.52-.3.52-1.04,0-1.34h5c-.52.3-.52,1.04,0,1.34h-5Z"/>
    <path d="m472.5,370.62c.52-.3.52-1.04,0-1.34h5c-.52.3-.52,1.04,0,1.34h-5Z"/>
    <rect x="470" y="349.95" width="10" height="10" rx="5" ry="5" transform="translate(950 709.9) rotate(-180)"/>
    <rect x="480" y="389.95" width="10" height="10" rx="5" ry="5" transform="translate(970 789.9) rotate(180)"/>
    <path d="m489.33,392.45c.3.52,1.04.52,1.34,0v5c-.3-.52-1.04-.52-1.34,0v-5Z"/>
    <path d="m472.5,360.62c.52-.3.52-1.04,0-1.34h5c-.52.3-.52,1.04,0,1.34h-5Z"/>
    <path d="m512.5,380.62c.52-.3.52-1.04,0-1.34h5c-.52.3-.52,1.04,0,1.34h-5Z"/>
    <path d="m512.5,370.62c.52-.3.52-1.04,0-1.34h5c-.52.3-.52,1.04,0,1.34h-5Z"/>
    <path d="m512.5,360.62c.52-.3.52-1.04,0-1.34h5c-.52.3-.52,1.04,0,1.34h-5Z"/>
    <path d="m512.5,330.62c.52-.3.52-1.04,0-1.34h5c-.52.3-.52,1.04,0,1.34h-5Z"/>
    <rect x="490" y="389.95" width="10" height="10" rx="5" ry="5" transform="translate(990 789.9) rotate(180)"/>
    <rect x="440.5" y="390.45" width="9" height="9" rx="4.5" ry="4.5" transform="translate(890 789.9) rotate(180)"/>
    <rect x="430.5" y="390.45" width="9" height="9" rx="4.5" ry="4.5" transform="translate(870 789.9) rotate(-180)"/>
    <rect x="420.5" y="390.45" width="9" height="9" rx="4.5" ry="4.5" transform="translate(850 789.9) rotate(180)"/>
    <rect x="410.5" y="380.45" width="9" height="9" rx="4.5" ry="4.5" transform="translate(830 769.9) rotate(180)"/>
    <rect x="410.5" y="370.45" width="9" height="9" rx="4.5" ry="4.5" transform="translate(830 749.9) rotate(-180)"/>
    <path d="m412.75,371.05c.85-.49.85-1.72,0-2.21h4.5c-.85.49-.85,1.72,0,2.21h-4.5Z"/>
    <rect x="410.5" y="360.45" width="9" height="9" rx="4.5" ry="4.5" transform="translate(830 729.9) rotate(180)"/>
    <rect x="420.5" y="340.45" width="9" height="9" rx="4.5" ry="4.5" transform="translate(850 689.9) rotate(180)"/>
    <rect x="420.5" y="360.45" width="9" height="9" rx="4.5" ry="4.5" transform="translate(850 729.9) rotate(-180)"/>
    <path d="m428.9,362.7c.49.85,1.72.85,2.21,0v4.5c-.49-.85-1.72-.85-2.21,0v-4.5Z"/>
    <path d="m438.9,362.7c.49.85,1.72.85,2.21,0v4.5c-.49-.85-1.72-.85-2.21,0v-4.5Z"/>
    <rect x="430.5" y="360.45" width="9" height="9" rx="4.5" ry="4.5" transform="translate(870 729.9) rotate(180)"/>
    <rect x="440.5" y="360.45" width="9" height="9" rx="4.5" ry="4.5" transform="translate(890 729.9) rotate(180)"/>
    <rect x="440.5" y="340.45" width="9" height="9" rx="4.5" ry="4.5" transform="translate(890 689.9) rotate(-180)"/>
    <rect x="450.5" y="350.45" width="9" height="9" rx="4.5" ry="4.5" transform="translate(910 709.9) rotate(-180)"/>
    <rect x="430.5" y="340.45" width="9" height="9" rx="4.5" ry="4.5" transform="translate(870 689.9) rotate(180)"/>
    <rect x="410.5" y="350.45" width="9" height="9" rx="4.5" ry="4.5" transform="translate(830 709.9) rotate(-180)"/>
    <path d="m428.9,342.7c.49.85,1.72.85,2.21,0v4.5c-.49-.85-1.72-.85-2.21,0v-4.5Z"/>
    <path d="m438.9,342.7c.49.85,1.72.85,2.21,0v4.5c-.49-.85-1.72-.85-2.21,0v-4.5Z"/>
    <rect class="cls-2" x="510" y="299.95" width="10" height="10" rx="5" ry="5" transform="translate(1030 609.9) rotate(180)"/>
    <rect x="510" y="319.95" width="10" height="10" rx="5" ry="5" transform="translate(1030 649.9) rotate(-180)"/>
  </g>
  <g>
    <path class="cls-2" d="m285.24,419.9v-6.67h2.14c1.05,0,1.85.29,2.42.87.56.58.85,1.41.85,2.48s-.28,1.89-.83,2.46c-.55.58-1.35.86-2.37.86h-2.2Zm1.01-.93h1.13c.74,0,1.29-.2,1.66-.6.37-.4.55-1,.55-1.8s-.18-1.42-.55-1.82c-.37-.4-.92-.6-1.66-.6h-1.13v4.81Z"/>
    <path class="cls-2" d="m296.23,419.9v-6.67h4.34v.93h-3.33v1.95h3.21v.9h-3.21v1.96h3.4v.93h-4.42Z"/>
    <path class="cls-2" d="m308.66,420.05c-.53,0-.99-.1-1.39-.29-.39-.19-.7-.46-.93-.81s-.36-.75-.39-1.2l1.04-.07c.04.31.13.58.27.79s.32.38.56.49c.23.11.52.17.85.17.29,0,.53-.04.74-.11.2-.07.36-.18.47-.32.11-.14.16-.32.16-.53,0-.19-.04-.36-.14-.5-.09-.15-.26-.28-.52-.4-.25-.12-.62-.24-1.11-.36-.53-.13-.96-.28-1.28-.43-.32-.16-.55-.35-.69-.59-.14-.24-.21-.53-.21-.87,0-.38.09-.72.28-1.01s.45-.52.79-.68.76-.24,1.24-.24.94.09,1.3.28c.36.19.64.44.85.77.21.33.34.7.39,1.12l-1.04.06c-.03-.26-.11-.48-.23-.68-.13-.2-.29-.35-.51-.46-.21-.11-.47-.16-.78-.16-.39,0-.69.09-.92.27s-.33.42-.33.71c0,.19.05.35.14.47.09.13.25.24.49.33.24.09.57.19,1,.3.58.13,1.04.29,1.38.48.34.19.58.42.73.67.14.26.22.55.22.87,0,.4-.1.74-.3,1.03-.2.29-.49.52-.85.67-.36.16-.79.24-1.27.24Z"/>
    <path class="cls-2" d="m316.8,419.9v-6.67h1.01v6.67h-1.01Z"/>
    <path class="cls-2" d="m326.22,420.05c-.63,0-1.17-.15-1.63-.45s-.8-.71-1.03-1.23-.36-1.12-.36-1.8.12-1.27.36-1.79.59-.94,1.05-1.25,1.01-.46,1.64-.46c.54,0,1.01.1,1.39.29s.68.46.9.8c.22.34.38.72.46,1.16l-1.06.06c-.08-.41-.25-.74-.51-.99-.26-.25-.66-.38-1.18-.38-.46,0-.84.12-1.14.35-.29.23-.51.54-.65.93-.14.39-.21.82-.21,1.29s.07.92.21,1.31.36.68.66.91c.3.22.68.33,1.14.33.36,0,.68-.08.94-.23.26-.16.47-.37.62-.64.15-.27.23-.57.24-.89h-1.79v-.86h2.75v3.4h-.7l-.07-1.5.13.11c-.07.3-.21.57-.42.8-.21.23-.47.41-.78.54-.3.13-.63.2-.98.2Z"/>
    <path class="cls-2" d="m334.61,419.9v-6.67h1.29l3.08,5.44v-5.44h1.01v6.67h-1.33l-3.04-5.32v5.32h-1.01Z"/>
    <path class="cls-2" d="m352.5,419.9v-6.67h1.01v6.67h-1.01Z"/>
    <path class="cls-2" d="m359.27,419.9v-6.67h1.29l3.08,5.44v-5.44h1.01v6.67h-1.33l-3.04-5.32v5.32h-1.01Z"/>
    <path class="cls-2" d="m371.59,419.9v-5.74h-2.05v-.93h5.11v.93h-2.05v5.74h-1.01Z"/>
    <path class="cls-2" d="m379.63,419.9v-6.67h4.34v.93h-3.33v1.95h3.21v.9h-3.21v1.96h3.4v.93h-4.42Z"/>
    <path class="cls-2" d="m389.66,419.9v-6.67h1.01v6.3l-.54-.55h3.79v.93h-4.27Z"/>
    <path class="cls-2" d="m399.18,419.9v-6.67h1.01v6.3l-.54-.55h3.79v.93h-4.27Z"/>
    <path class="cls-2" d="m408.55,419.9v-6.67h1.01v6.67h-1.01Z"/>
    <path class="cls-2" d="m417.97,420.05c-.63,0-1.17-.15-1.63-.45s-.8-.71-1.03-1.23-.36-1.12-.36-1.8.12-1.27.36-1.79.59-.94,1.05-1.25,1.01-.46,1.64-.46c.54,0,1.01.1,1.39.29s.68.46.9.8c.22.34.38.72.46,1.16l-1.06.06c-.08-.41-.25-.74-.51-.99-.26-.25-.66-.38-1.18-.38-.46,0-.84.12-1.14.35-.29.23-.51.54-.65.93-.14.39-.21.82-.21,1.29s.07.92.21,1.31.36.68.66.91c.3.22.68.33,1.14.33.36,0,.68-.08.94-.23.26-.16.47-.37.62-.64.15-.27.23-.57.24-.89h-1.79v-.86h2.75v3.4h-.7l-.07-1.5.13.11c-.07.3-.21.57-.42.8-.21.23-.47.41-.78.54-.3.13-.63.2-.98.2Z"/>
    <path class="cls-2" d="m426.35,419.9v-6.67h4.34v.93h-3.33v1.95h3.21v.9h-3.21v1.96h3.4v.93h-4.42Z"/>
    <path class="cls-2" d="m436.3,419.9v-6.67h1.29l3.08,5.44v-5.44h1.01v6.67h-1.33l-3.04-5.32v5.32h-1.01Z"/>
    <path class="cls-2" d="m450.11,420.05c-.6,0-1.13-.14-1.59-.42-.46-.28-.81-.68-1.07-1.2-.26-.52-.39-1.14-.39-1.86s.13-1.33.38-1.86c.25-.52.61-.93,1.07-1.21.46-.29.99-.43,1.61-.43.83,0,1.47.21,1.93.62.46.41.75.99.89,1.72l-1.06.06c-.09-.46-.28-.82-.56-1.08-.29-.26-.69-.39-1.19-.39-.41,0-.76.1-1.06.31-.3.21-.53.5-.7.88s-.25.84-.25,1.37.08.99.25,1.37c.17.38.4.67.7.87.3.2.65.3,1.04.3.54,0,.96-.14,1.25-.43.3-.29.48-.68.56-1.18l1.06.06c-.08.51-.25.95-.49,1.32-.24.37-.57.66-.97.86-.4.2-.87.31-1.42.31Z"/>
    <path class="cls-2" d="m458.47,419.9v-6.67h4.34v.93h-3.33v1.95h3.21v.9h-3.21v1.96h3.4v.93h-4.42Z"/>
    <path class="cls-2" d="m475.08,419.9v-6.67h1.01v6.3l-.54-.55h3.79v.93h-4.27Z"/>
    <path class="cls-2" d="m484.06,419.9l2.41-6.67h1.29l2.41,6.67h-1.08l-.61-1.74h-2.73l-.6,1.74h-1.08Zm2-2.66h2.1l-1.05-3.04-1.04,3.04Z"/>
    <path class="cls-2" d="m496.24,419.9v-2.68l-2.34-3.99h1.17l1.68,2.98,1.69-2.98h1.17l-2.35,3.99v2.68h-1.01Z"/>
    <path class="cls-2" d="m504.46,419.9v-6.67h4.34v.93h-3.33v1.95h3.21v.9h-3.21v1.96h3.4v.93h-4.42Z"/>
    <path class="cls-2" d="m514.42,419.9v-6.67h2.66c.48,0,.89.08,1.23.24s.61.39.8.7c.19.3.28.66.28,1.07,0,.3-.07.57-.2.81s-.31.43-.54.57c-.22.14-.46.22-.71.24l-.05-.08c.42,0,.75.1.98.29.23.19.37.49.4.9l.18,1.95h-1.02l-.16-1.81c-.02-.27-.11-.47-.27-.6-.16-.13-.43-.19-.8-.19h-1.77v2.6h-1.01Zm1.01-3.53h1.66c.38,0,.68-.09.91-.29s.33-.46.33-.81-.11-.63-.34-.82c-.23-.19-.55-.29-.99-.29h-1.58v2.21Z"/>
  </g>
</svg>